<svg id="Layer_1" data-name="Layer 1" xmlns="http://www.w3.org/2000/svg" viewBox="0 0 185.52 198.03">
  <title>Equal-Opportunity-Logo</title>
  <g>
    <path d="M7.24,87.71v-25L14.37,58l13.34-9c4.35-2.92,8.73-5.82,13.09-8.74s8.88-6,13.34-9,8.73-5.82,13.09-8.74,8.58-5.79,12.87-8.67L98.8,1.31a2.33,2.33,0,0,1,2.44,0L105.17,4c3.13,2.12,6.25,4.26,9.39,6.37q9.06,6.09,18.15,12.17c3.16,2.12,6.3,4.27,9.46,6.39l18.68,12.53q9,6,17.93,12.1c4.2,2.82,8.42,5.61,12.62,8.44a13.34,13.34,0,0,1,1.36,1.25V87.87h-12v73.72h-1.15q-50.31-.08-100.6-.16-29.1,0-58.2,0a11,11,0,0,1-1.43-.19V87.71Zm153.51,48.56v-.58q0-30.63,0-61.24a1.09,1.09,0,0,0-.6-1L145,63.31,114.37,42.86q-7-4.66-14-9.35a.87.87,0,0,0-1.14,0c-1.78,1.24-3.59,2.44-5.39,3.65q-6.19,4.19-12.4,8.36-6,4-12,8L57.38,61.64C51.66,65.48,46,69.34,40.22,73.16a1.28,1.28,0,0,0-.65,1.25q0,30.5,0,61v.87Z" transform="translate(-7.24 -0.98)"/>
    <path d="M86.43,182.45c2.58,0,5.09-.06,7.6,0a8,8,0,0,1,3.11.69A4,4,0,0,1,98.78,185a4.3,4.3,0,0,1-.48,4.72,5.08,5.08,0,0,1-3.44,1.63c2.62,1.81,3.78,4.7,5.58,7.33-.91,0-1.66,0-2.41,0-.15,0-.34-.2-.44-.36-1-1.52-2-3.07-3-4.59s-2.31-2.57-4.32-2.26a13.24,13.24,0,0,1-1.79,0v7.18H86.43Zm2.12,7.06c2.1,0,4.13,0,6.16,0a2.41,2.41,0,0,0,2.17-1.75c.4-1.69-.36-3.1-2.13-3.27a60.92,60.92,0,0,0-6.2-.05Z" transform="translate(-7.24 -0.98)"/>
    <path d="M145.26,198.64l-.13,0c-1.45.31-2.33-.28-3.12-1.54-2.22-3.56-4.6-7-6.92-10.53a5.06,5.06,0,0,0-.43-.48v12.51h-1.93V182.45a15.82,15.82,0,0,1,1.69,0,1,1,0,0,1,.59.42q3,4.41,6,8.84c.73,1.07,1.47,2.15,2.32,3.41V182.49h1.92Z" transform="translate(-7.24 -0.98)"/>
    <path d="M28.07,199a6.36,6.36,0,0,1-5.44-2.28,9.22,9.22,0,0,1-2.15-7.41,9.07,9.07,0,0,1,1.87-4.52,6.16,6.16,0,0,1,3.08-2.06,9.27,9.27,0,0,1,3-.47,7.24,7.24,0,0,1,5.3,2.34,7.8,7.8,0,0,1,2.08,5.18A10.85,10.85,0,0,1,34.9,195a7,7,0,0,1-4.08,3.53A14.66,14.66,0,0,1,28.07,199Zm.28-2c1.54.42,2.63-.67,3.74-1.63a3.65,3.65,0,0,0,.9-1.32,9.33,9.33,0,0,0,.52-5.38,5.49,5.49,0,0,0-4.31-4.46,4.71,4.71,0,0,0-3.83.64,4.48,4.48,0,0,0-2.34,2.9,26.79,26.79,0,0,0-.35,3.7C22.54,194.31,25.09,197.49,28.35,197Z" transform="translate(-7.24 -0.98)"/>
    <path d="M75.7,198.82a6,6,0,0,1-5.44-2.06,8.29,8.29,0,0,1-2.1-4.95,8.55,8.55,0,0,1,1.5-6.53,8,8,0,0,1,2.62-2.22A7.39,7.39,0,0,1,78,182.6a7.18,7.18,0,0,1,5.11,5.19,10,10,0,0,1-.34,6.68,6.43,6.43,0,0,1-3,3.45A6.29,6.29,0,0,1,75.7,198.82Zm-5.39-8.21a6.1,6.1,0,0,0,1.44,4.82,5.27,5.27,0,0,0,5,1.63A3.51,3.51,0,0,0,78,196.8a5.59,5.59,0,0,0,2.84-3.14,10.81,10.81,0,0,0,.41-1.94,8.31,8.31,0,0,0-.46-4.22,5.64,5.64,0,0,0-4.41-3.39A5.57,5.57,0,0,0,71,186.86,7.25,7.25,0,0,0,70.31,190.61Z" transform="translate(-7.24 -0.98)"/>
    <path d="M55.83,192.14v6.5H53.76V182.46c2.43,0,4.85-.05,7.27,0a6.38,6.38,0,0,1,2.39.6A4.32,4.32,0,0,1,65.89,188,4.21,4.21,0,0,1,64,191.25a7.8,7.8,0,0,1-3.13.85C59.2,192.24,57.56,192.14,55.83,192.14Zm0-2c1.88,0,3.68,0,5.49,0a3,3,0,0,0,2.32-1.91,8.16,8.16,0,0,0,0-1.31c0-1.18-.44-2-1.61-2.15-2-.29-4.13-.35-6.24-.51Z" transform="translate(-7.24 -0.98)"/>
    <path d="M40.73,192.14v6.5H38.65V182.45c1.39,0,2.77,0,4.15,0,1.57.06,3.13.18,4.69.32a4.58,4.58,0,0,1,3.47,4,5.58,5.58,0,0,1-1.71,4.27,2.62,2.62,0,0,1-1.13.49,22.72,22.72,0,0,1-3.14.56C43.6,192.21,42.21,192.14,40.73,192.14Zm0-2c1.57,0,3,0,4.52,0a4.24,4.24,0,0,0,2.31-.56,2.18,2.18,0,0,0,1.19-2.2A2.49,2.49,0,0,0,47.57,185c-2.19-1.06-4.52-.34-6.81-.58Z" transform="translate(-7.24 -0.98)"/>
    <path d="M126.93,182.49H129c0,.23.05.46.05.7,0,3.23.06,6.45,0,9.68a6.72,6.72,0,0,1-.95,3.84,5,5,0,0,1-4,2.14,22.26,22.26,0,0,1-3.65-.16,4.19,4.19,0,0,1-3.59-3.64,26.06,26.06,0,0,1-.37-5c-.05-2.48,0-5,0-7.53h2.13v.85c0,3.25,0,6.5,0,9.76a3.62,3.62,0,0,0,2.09,3.58,5.72,5.72,0,0,0,2.52.34c1.51-.07,2.88-.53,3.43-2.15a5.4,5.4,0,0,0,.32-1.73c0-3.25,0-6.5,0-9.76Z" transform="translate(-7.24 -0.98)"/>
    <path d="M45.05,178l2.4,1.22-.61,1.22a9,9,0,0,1-1.86-.93,2.17,2.17,0,0,0-2.35-.3c-3.46,1.13-7.22-.29-8.3-4a8.89,8.89,0,0,1,.48-6.62,5.94,5.94,0,0,1,4.19-3.2,6.49,6.49,0,0,1,6.11,1.69,6.4,6.4,0,0,1,2,4.13A7.86,7.86,0,0,1,45.83,177C45.59,177.31,45.32,177.61,45.05,178Zm-1.22-1a8,8,0,0,0,1-1.94,14.39,14.39,0,0,0,.33-3.52,4.58,4.58,0,0,0-2.8-4.25c-2.07-.84-4.45-.09-5.3,1.14a7.55,7.55,0,0,0-.87,6.63c.63,2.44,4.27,3.83,6.13,2.55l-1.72-.64a2.53,2.53,0,0,0,.2-.47c.14-.83.64-.84,1.24-.54S43.12,176.52,43.83,176.93Z" transform="translate(-7.24 -0.98)"/>
    <path d="M164.79,179.33a4.83,4.83,0,0,0-.54,0,2,2,0,0,1-2.23-1.18c-1.88-3.05-3.91-6-5.88-9-.11-.17-.25-.33-.48-.63v10.79h-1.75V165.37a8.82,8.82,0,0,1,1.36,0,1.16,1.16,0,0,1,.74.42c2.2,3.3,4.37,6.61,6.55,9.92.11.18.25.33.48.63v-11h1.75Z" transform="translate(-7.24 -0.98)"/>
    <path d="M178.48,173.9h-4.06v-1.63h5.86c0,1.67,0,3.3,0,4.93,0,.13-.18.29-.31.4a8.44,8.44,0,0,1-7.13,1.83,5.77,5.77,0,0,1-4.89-4.21,7.76,7.76,0,0,1,1.85-8.4,5.66,5.66,0,0,1,2.75-1.38,7.24,7.24,0,0,1,5.62,1,4.33,4.33,0,0,1,1.81,3l-.47.09c-1.13.29-1.08.26-1.57-.75a3.59,3.59,0,0,0-3.09-1.88,4.93,4.93,0,0,0-5.44,4.41,6.5,6.5,0,0,0,1.52,5.52,3.58,3.58,0,0,0,2.45,1,6.23,6.23,0,0,0,4.77-1,.87.87,0,0,0,.32-.55C178.5,175.49,178.48,174.76,178.48,173.9Z" transform="translate(-7.24 -0.98)"/>
    <path d="M112.62,179.54a6.36,6.36,0,0,1-6.29-4.65,8.64,8.64,0,0,1,1-6.92,6.34,6.34,0,0,1,4.54-2.63,6.7,6.7,0,0,1,5.23,1.51,5.47,5.47,0,0,1,2,3.3,6.36,6.36,0,0,1,.31,2.06,8.81,8.81,0,0,1-1.3,4.64,6.35,6.35,0,0,1-3.58,2.52A8.57,8.57,0,0,1,112.62,179.54Zm.45-1.53a4.16,4.16,0,0,0,3.71-2.59,18.36,18.36,0,0,0,.5-2.25c.53-2.23-.77-5.81-3.8-6.21a4.44,4.44,0,0,0-4.79,2.26,7.84,7.84,0,0,0-.67,4.44A4.74,4.74,0,0,0,113.07,178Z" transform="translate(-7.24 -0.98)"/>
    <path d="M21.75,165.41h9.91V167H23.54v4.28h7.61v1.66H23.53v4.74H32v1.63H21.75Z" transform="translate(-7.24 -0.98)"/>
    <path d="M94.55,171.08h7.07v-5.65h1.78v13.86h-1.73v-6.48H94.6v6.46H92.66V165.41h1.89Z" transform="translate(-7.24 -0.98)"/>
    <path d="M145.74,169.45h-1.56a8.35,8.35,0,0,0-1.5-2c-1.39-1-3.94-.92-5,.59-.88,1.19,0,2.32,1.29,2.7s2.89.58,4.27,1a3.76,3.76,0,0,1,2.72,2.85,3.65,3.65,0,0,1-1.58,4c-1.61,1.07-3.33.92-5.07.79a5.6,5.6,0,0,1-1.7-.43,4.31,4.31,0,0,1-2.43-3.29c0-.23-.08-.47-.13-.75.21,0,.42,0,.63-.05.74-.08,1.18,0,1.4,1a2.75,2.75,0,0,0,2.52,1.95,8.7,8.7,0,0,0,3.05-.18,2,2,0,0,0,1.7-2c0-.89-1.05-1.85-2.17-2.15-1.44-.38-2.92-.66-4.31-1.18a3.32,3.32,0,0,1-1.4-5.41,5.38,5.38,0,0,1,5.33-1.42c1.57.31,3,.92,3.61,2.57C145.53,168.42,145.6,168.89,145.74,169.45Z" transform="translate(-7.24 -0.98)"/>
    <path d="M58.63,165.41h2c0,2.44,0,4.84,0,7.24a28,28,0,0,1-.32,3.54,4.08,4.08,0,0,1-3.54,3.27,13.76,13.76,0,0,1-3.27,0,4,4,0,0,1-3.51-3.28,11.38,11.38,0,0,1-.33-2.47c0-2.73,0-5.46,0-8.25h2v.88c0,2.65,0,5.31,0,8a7.5,7.5,0,0,0,.38,2,2.24,2.24,0,0,0,2.27,1.54,9.76,9.76,0,0,0,2.43-.13c1.3-.37,2-1.56,2-3.16,0-2.73,0-5.47,0-8.2Z" transform="translate(-7.24 -0.98)"/>
    <path d="M75,179.3c-2.09.1-2.09.1-2.71-1.73l-.24-.68c-.23-.59-.29-1.47-.72-1.72a4.93,4.93,0,0,0-2.09-.11c-1,0-2.08,0-3.11,0a.65.65,0,0,0-.75.54c-.33,1-.73,2-1,3a.84.84,0,0,1-1,.72,8.66,8.66,0,0,0-1.15,0c.67-1.84,1.32-3.63,2-5.42,1-2.55,1.92-5.1,2.87-7.65.19-.51.33-1,1.08-.91s1.36-.13,1.73.84c1.52,4,3.14,7.95,4.72,11.92C74.68,178.48,74.81,178.86,75,179.3Zm-8.91-5.76h4.6l-2.3-6.42Z" transform="translate(-7.24 -0.98)"/>
    <path d="M121.67,165.41h1.81c0,1.21,0,2.38,0,3.55,0,2.15.11,4.3.16,6.45,0,1,1.33,2.57,2.56,2.45a14.93,14.93,0,0,0,2.52-.13c1.3-.35,2-1.59,2-3.23,0-2.71,0-5.41,0-8.12v-.95h1.81v2.77c0,2.27,0,4.54,0,6.81a4.31,4.31,0,0,1-4.22,4.46,14.87,14.87,0,0,1-2.91-.13,3.92,3.92,0,0,1-3.51-3.83c-.17-1.92-.15-3.86-.18-5.79C121.65,168.31,121.67,166.89,121.67,165.41Z" transform="translate(-7.24 -0.98)"/>
    <path d="M182.13,182.45c-.76,1.13-1.44,2.14-2.13,3.15-1.3,1.91-2.62,3.79-3.89,5.72a2.34,2.34,0,0,0-.4,1.25c-.05,2,0,4,0,6.09h-2.14a26.93,26.93,0,0,1,0-3.24,8.44,8.44,0,0,0-2-6.57c-1.47-1.87-2.68-3.94-4-5.93a2.11,2.11,0,0,1-.19-.47c.77,0,1.49,0,2.21,0a.93.93,0,0,1,.57.44c1.55,2.37,3.08,4.76,4.6,7.12,1.44-2.23,2.94-4.48,4.37-6.78a1.46,1.46,0,0,1,1.56-.81A13.57,13.57,0,0,0,182.13,182.45Z" transform="translate(-7.24 -0.98)"/>
    <path d="M108.9,198.67h-2.17V184.44h-5.36V182.5h12.7v1.88H108.9Z" transform="translate(-7.24 -0.98)"/>
    <path d="M161.4,184.41v14.23h-2.1v-14.2h-5.24v-1.93h12.7v1.9Z" transform="translate(-7.24 -0.98)"/>
    <path d="M85,177.65v1.63h-8.6V165.43h1.72v12.22Z" transform="translate(-7.24 -0.98)"/>
    <path d="M151.33,198.67h-2V182.51h2Z" transform="translate(-7.24 -0.98)"/>
    <path d="M150.69,165.42v13.85h-1.88V165.42Z" transform="translate(-7.24 -0.98)"/>
    <path d="M68.19,124.76V98.42h63.92v26.34Z" transform="translate(-7.24 -0.98)"/>
    <path d="M131.91,67.9V94.22H68V67.9Z" transform="translate(-7.24 -0.98)"/>
  </g>
</svg>
